<mxfile host="app.diagrams.net" modified="2023-10-03T18:38:41.811Z" agent="Mozilla/5.0 (Windows NT 10.0; Win64; x64) AppleWebKit/537.36 (KHTML, like Gecko) Chrome/116.0.0.0 Safari/537.36 OPR/102.0.0.0" etag="fkc_fQ1vtPWoDIEW10fX" version="22.0.2" type="github">
  <diagram id="R2lEEEUBdFMjLlhIrx00" name="Page-1">
    <mxGraphModel dx="2154" dy="1173" grid="1" gridSize="10" guides="1" tooltips="1" connect="1" arrows="1" fold="1" page="1" pageScale="1" pageWidth="1100" pageHeight="850" math="0" shadow="0" extFonts="Permanent Marker^https://fonts.googleapis.com/css?family=Permanent+Marker">
      <root>
        <mxCell id="0" />
        <mxCell id="1" parent="0" />
        <mxCell id="qIJ_YOxVJehAjpJSy9Fa-1" value="" style="rounded=1;whiteSpace=wrap;html=1;dashed=1;" vertex="1" parent="1">
          <mxGeometry x="10" y="30" width="400" height="250" as="geometry" />
        </mxCell>
        <mxCell id="qIJ_YOxVJehAjpJSy9Fa-2" value="User" style="text;strokeColor=none;align=center;fillColor=none;html=1;verticalAlign=middle;whiteSpace=wrap;rounded=0;" vertex="1" parent="1">
          <mxGeometry x="40" y="30" width="60" height="30" as="geometry" />
        </mxCell>
        <mxCell id="iIC4tSzsz-Pec4KF7wiN-109" value="" style="rounded=1;whiteSpace=wrap;html=1;dashed=1;" parent="1" vertex="1">
          <mxGeometry x="490" y="30" width="610" height="370" as="geometry" />
        </mxCell>
        <mxCell id="iIC4tSzsz-Pec4KF7wiN-108" value="" style="rounded=1;whiteSpace=wrap;html=1;dashed=1;" parent="1" vertex="1">
          <mxGeometry x="20" y="490" width="1080" height="200" as="geometry" />
        </mxCell>
        <mxCell id="iIC4tSzsz-Pec4KF7wiN-1" value="streamers" style="shape=table;startSize=30;container=1;collapsible=1;childLayout=tableLayout;fixedRows=1;rowLines=0;fontStyle=1;align=center;resizeLast=1;rounded=1;" parent="1" vertex="1">
          <mxGeometry x="90" y="520" width="250" height="160" as="geometry" />
        </mxCell>
        <mxCell id="iIC4tSzsz-Pec4KF7wiN-2" value="" style="shape=partialRectangle;collapsible=0;dropTarget=0;pointerEvents=0;fillColor=none;points=[[0,0.5],[1,0.5]];portConstraint=eastwest;top=0;left=0;right=0;bottom=1;" parent="iIC4tSzsz-Pec4KF7wiN-1" vertex="1">
          <mxGeometry y="30" width="250" height="30" as="geometry" />
        </mxCell>
        <mxCell id="iIC4tSzsz-Pec4KF7wiN-3" value="PK" style="shape=partialRectangle;overflow=hidden;connectable=0;fillColor=none;top=0;left=0;bottom=0;right=0;fontStyle=1;" parent="iIC4tSzsz-Pec4KF7wiN-2" vertex="1">
          <mxGeometry width="30" height="30" as="geometry">
            <mxRectangle width="30" height="30" as="alternateBounds" />
          </mxGeometry>
        </mxCell>
        <mxCell id="iIC4tSzsz-Pec4KF7wiN-4" value="streamer_id                INT" style="shape=partialRectangle;overflow=hidden;connectable=0;fillColor=none;top=0;left=0;bottom=0;right=0;align=left;spacingLeft=6;fontStyle=1;" parent="iIC4tSzsz-Pec4KF7wiN-2" vertex="1">
          <mxGeometry x="30" width="220" height="30" as="geometry">
            <mxRectangle width="220" height="30" as="alternateBounds" />
          </mxGeometry>
        </mxCell>
        <mxCell id="iIC4tSzsz-Pec4KF7wiN-5" value="" style="shape=partialRectangle;collapsible=0;dropTarget=0;pointerEvents=0;fillColor=none;points=[[0,0.5],[1,0.5]];portConstraint=eastwest;top=0;left=0;right=0;bottom=0;" parent="iIC4tSzsz-Pec4KF7wiN-1" vertex="1">
          <mxGeometry y="60" width="250" height="100" as="geometry" />
        </mxCell>
        <mxCell id="iIC4tSzsz-Pec4KF7wiN-6" value="" style="shape=partialRectangle;overflow=hidden;connectable=0;fillColor=none;top=0;left=0;bottom=0;right=0;" parent="iIC4tSzsz-Pec4KF7wiN-5" vertex="1">
          <mxGeometry width="30" height="100" as="geometry">
            <mxRectangle width="30" height="100" as="alternateBounds" />
          </mxGeometry>
        </mxCell>
        <mxCell id="iIC4tSzsz-Pec4KF7wiN-7" value="streamer_name           VARCHAR(20)&#xa;name_kana                  VARCHAR(20)&#xa;self_intro_url                VARCHAR(100)&#xa;streamer_inputer_id     VARCHAR(4)&#xa;&#xa;INDEX(streamer_id)" style="shape=partialRectangle;overflow=hidden;connectable=0;fillColor=none;top=0;left=0;bottom=0;right=0;align=left;spacingLeft=6;verticalAlign=top;" parent="iIC4tSzsz-Pec4KF7wiN-5" vertex="1">
          <mxGeometry x="30" width="220" height="100" as="geometry">
            <mxRectangle width="220" height="100" as="alternateBounds" />
          </mxGeometry>
        </mxCell>
        <mxCell id="iIC4tSzsz-Pec4KF7wiN-22" value="karaoke_lists" style="shape=table;startSize=30;container=1;collapsible=1;childLayout=tableLayout;fixedRows=1;rowLines=0;fontStyle=1;align=center;resizeLast=1;rounded=1;" parent="1" vertex="1">
          <mxGeometry x="770" y="520" width="250" height="150" as="geometry" />
        </mxCell>
        <mxCell id="iIC4tSzsz-Pec4KF7wiN-23" value="" style="shape=partialRectangle;collapsible=0;dropTarget=0;pointerEvents=0;fillColor=none;points=[[0,0.5],[1,0.5]];portConstraint=eastwest;top=0;left=0;right=0;bottom=1;" parent="iIC4tSzsz-Pec4KF7wiN-22" vertex="1">
          <mxGeometry y="30" width="250" height="40" as="geometry" />
        </mxCell>
        <mxCell id="iIC4tSzsz-Pec4KF7wiN-24" value="PK" style="shape=partialRectangle;overflow=hidden;connectable=0;fillColor=none;top=0;left=0;bottom=0;right=0;fontStyle=1;" parent="iIC4tSzsz-Pec4KF7wiN-23" vertex="1">
          <mxGeometry width="30" height="40" as="geometry">
            <mxRectangle width="30" height="40" as="alternateBounds" />
          </mxGeometry>
        </mxCell>
        <mxCell id="iIC4tSzsz-Pec4KF7wiN-25" value="movie_url                VARCHAR(100)&#xa;song_id                   INT" style="shape=partialRectangle;overflow=hidden;connectable=0;fillColor=none;top=0;left=0;bottom=0;right=0;align=left;spacingLeft=6;fontStyle=1;" parent="iIC4tSzsz-Pec4KF7wiN-23" vertex="1">
          <mxGeometry x="30" width="220" height="40" as="geometry">
            <mxRectangle width="220" height="40" as="alternateBounds" />
          </mxGeometry>
        </mxCell>
        <mxCell id="iIC4tSzsz-Pec4KF7wiN-26" value="" style="shape=partialRectangle;collapsible=0;dropTarget=0;pointerEvents=0;fillColor=none;points=[[0,0.5],[1,0.5]];portConstraint=eastwest;top=0;left=0;right=0;bottom=0;" parent="iIC4tSzsz-Pec4KF7wiN-22" vertex="1">
          <mxGeometry y="70" width="250" height="80" as="geometry" />
        </mxCell>
        <mxCell id="iIC4tSzsz-Pec4KF7wiN-27" value="" style="shape=partialRectangle;overflow=hidden;connectable=0;fillColor=none;top=0;left=0;bottom=0;right=0;" parent="iIC4tSzsz-Pec4KF7wiN-26" vertex="1">
          <mxGeometry width="30" height="80" as="geometry">
            <mxRectangle width="30" height="80" as="alternateBounds" />
          </mxGeometry>
        </mxCell>
        <mxCell id="iIC4tSzsz-Pec4KF7wiN-28" value="sing_start                 TIMESTAMP&#xa;song                         VARCHAR(100)&#xa;song_inputer_id       VARCHAR(4)&#xa;&#xa;" style="shape=partialRectangle;overflow=hidden;connectable=0;fillColor=none;top=0;left=0;bottom=0;right=0;align=left;spacingLeft=6;" parent="iIC4tSzsz-Pec4KF7wiN-26" vertex="1">
          <mxGeometry x="30" width="220" height="80" as="geometry">
            <mxRectangle width="220" height="80" as="alternateBounds" />
          </mxGeometry>
        </mxCell>
        <mxCell id="iIC4tSzsz-Pec4KF7wiN-29" value="movies" style="shape=table;startSize=30;container=1;collapsible=1;childLayout=tableLayout;fixedRows=1;rowLines=0;fontStyle=1;align=center;resizeLast=1;rounded=1;" parent="1" vertex="1">
          <mxGeometry x="445" y="520" width="250" height="160" as="geometry" />
        </mxCell>
        <mxCell id="iIC4tSzsz-Pec4KF7wiN-30" value="" style="shape=partialRectangle;collapsible=0;dropTarget=0;pointerEvents=0;fillColor=none;points=[[0,0.5],[1,0.5]];portConstraint=eastwest;top=0;left=0;right=0;bottom=1;" parent="iIC4tSzsz-Pec4KF7wiN-29" vertex="1">
          <mxGeometry y="30" width="250" height="30" as="geometry" />
        </mxCell>
        <mxCell id="iIC4tSzsz-Pec4KF7wiN-31" value="PK" style="shape=partialRectangle;overflow=hidden;connectable=0;fillColor=none;top=0;left=0;bottom=0;right=0;fontStyle=1;" parent="iIC4tSzsz-Pec4KF7wiN-30" vertex="1">
          <mxGeometry width="30" height="30" as="geometry">
            <mxRectangle width="30" height="30" as="alternateBounds" />
          </mxGeometry>
        </mxCell>
        <mxCell id="iIC4tSzsz-Pec4KF7wiN-32" value="movie_url                VARCHAR(100)" style="shape=partialRectangle;overflow=hidden;connectable=0;fillColor=none;top=0;left=0;bottom=0;right=0;align=left;spacingLeft=6;fontStyle=1;" parent="iIC4tSzsz-Pec4KF7wiN-30" vertex="1">
          <mxGeometry x="30" width="220" height="30" as="geometry">
            <mxRectangle width="220" height="30" as="alternateBounds" />
          </mxGeometry>
        </mxCell>
        <mxCell id="iIC4tSzsz-Pec4KF7wiN-33" value="" style="shape=partialRectangle;collapsible=0;dropTarget=0;pointerEvents=0;fillColor=none;points=[[0,0.5],[1,0.5]];portConstraint=eastwest;top=0;left=0;right=0;bottom=0;" parent="iIC4tSzsz-Pec4KF7wiN-29" vertex="1">
          <mxGeometry y="60" width="250" height="100" as="geometry" />
        </mxCell>
        <mxCell id="iIC4tSzsz-Pec4KF7wiN-34" value="" style="shape=partialRectangle;overflow=hidden;connectable=0;fillColor=none;top=0;left=0;bottom=0;right=0;" parent="iIC4tSzsz-Pec4KF7wiN-33" vertex="1">
          <mxGeometry width="30" height="100" as="geometry">
            <mxRectangle width="30" height="100" as="alternateBounds" />
          </mxGeometry>
        </mxCell>
        <mxCell id="iIC4tSzsz-Pec4KF7wiN-35" value="movie_id                   INT&#xa;movie_title                VARCHAR(100)&#xa;streamer_id              INT&#xa;movie_inputer_id      VARCHAR(6),&#xa;&#xa;INDEX(streamer_id)" style="shape=partialRectangle;overflow=hidden;connectable=0;fillColor=none;top=0;left=0;bottom=0;right=0;align=left;spacingLeft=6;verticalAlign=top;" parent="iIC4tSzsz-Pec4KF7wiN-33" vertex="1">
          <mxGeometry x="30" width="220" height="100" as="geometry">
            <mxRectangle width="220" height="100" as="alternateBounds" />
          </mxGeometry>
        </mxCell>
        <mxCell id="iIC4tSzsz-Pec4KF7wiN-55" value="follows" style="shape=table;startSize=30;container=1;collapsible=1;childLayout=tableLayout;fixedRows=1;rowLines=0;fontStyle=1;align=center;resizeLast=1;rounded=1;" parent="1" vertex="1">
          <mxGeometry x="630" y="60" width="460" height="180" as="geometry" />
        </mxCell>
        <mxCell id="iIC4tSzsz-Pec4KF7wiN-56" value="" style="shape=partialRectangle;collapsible=0;dropTarget=0;pointerEvents=0;fillColor=none;points=[[0,0.5],[1,0.5]];portConstraint=eastwest;top=0;left=0;right=0;bottom=1;" parent="iIC4tSzsz-Pec4KF7wiN-55" vertex="1">
          <mxGeometry y="30" width="460" height="30" as="geometry" />
        </mxCell>
        <mxCell id="iIC4tSzsz-Pec4KF7wiN-57" value="PK" style="shape=partialRectangle;overflow=hidden;connectable=0;fillColor=none;top=0;left=0;bottom=0;right=0;fontStyle=1;" parent="iIC4tSzsz-Pec4KF7wiN-56" vertex="1">
          <mxGeometry width="30" height="30" as="geometry">
            <mxRectangle width="30" height="30" as="alternateBounds" />
          </mxGeometry>
        </mxCell>
        <mxCell id="iIC4tSzsz-Pec4KF7wiN-58" value="follow_id                            INT" style="shape=partialRectangle;overflow=hidden;connectable=0;fillColor=none;top=0;left=0;bottom=0;right=0;align=left;spacingLeft=6;fontStyle=1;" parent="iIC4tSzsz-Pec4KF7wiN-56" vertex="1">
          <mxGeometry x="30" width="430" height="30" as="geometry">
            <mxRectangle width="430" height="30" as="alternateBounds" />
          </mxGeometry>
        </mxCell>
        <mxCell id="iIC4tSzsz-Pec4KF7wiN-59" value="" style="shape=partialRectangle;collapsible=0;dropTarget=0;pointerEvents=0;fillColor=none;points=[[0,0.5],[1,0.5]];portConstraint=eastwest;top=0;left=0;right=0;bottom=0;" parent="iIC4tSzsz-Pec4KF7wiN-55" vertex="1">
          <mxGeometry y="60" width="460" height="120" as="geometry" />
        </mxCell>
        <mxCell id="iIC4tSzsz-Pec4KF7wiN-60" value="" style="shape=partialRectangle;overflow=hidden;connectable=0;fillColor=none;top=0;left=0;bottom=0;right=0;" parent="iIC4tSzsz-Pec4KF7wiN-59" vertex="1">
          <mxGeometry width="30" height="120" as="geometry">
            <mxRectangle width="30" height="120" as="alternateBounds" />
          </mxGeometry>
        </mxCell>
        <mxCell id="iIC4tSzsz-Pec4KF7wiN-61" value="folower_listener                   VARCHAR(6) NOT NULL&#xa;followee_streamer               INT&#xa;followee_listener                  VARCHAR(6)&#xa;&#xa;UNIEQUE follow_relation(follower, followee_streamer, followee_listener)" style="shape=partialRectangle;overflow=hidden;connectable=0;fillColor=none;top=0;left=0;bottom=0;right=0;align=left;spacingLeft=6;verticalAlign=top;" parent="iIC4tSzsz-Pec4KF7wiN-59" vertex="1">
          <mxGeometry x="30" width="430" height="120" as="geometry">
            <mxRectangle width="430" height="120" as="alternateBounds" />
          </mxGeometry>
        </mxCell>
        <mxCell id="iIC4tSzsz-Pec4KF7wiN-69" value="members" style="shape=table;startSize=30;container=1;collapsible=1;childLayout=tableLayout;fixedRows=1;rowLines=0;fontStyle=1;align=center;resizeLast=1;" parent="1" vertex="1">
          <mxGeometry x="20" y="60" width="330.0000000000001" height="170" as="geometry" />
        </mxCell>
        <mxCell id="iIC4tSzsz-Pec4KF7wiN-70" value="" style="shape=partialRectangle;collapsible=0;dropTarget=0;pointerEvents=0;fillColor=none;points=[[0,0.5],[1,0.5]];portConstraint=eastwest;top=0;left=0;right=0;bottom=1;" parent="iIC4tSzsz-Pec4KF7wiN-69" vertex="1">
          <mxGeometry y="30" width="330.0000000000001" height="30" as="geometry" />
        </mxCell>
        <mxCell id="iIC4tSzsz-Pec4KF7wiN-71" value="PK" style="shape=partialRectangle;overflow=hidden;connectable=0;fillColor=none;top=0;left=0;bottom=0;right=0;fontStyle=1;" parent="iIC4tSzsz-Pec4KF7wiN-70" vertex="1">
          <mxGeometry width="30" height="30" as="geometry">
            <mxRectangle width="30" height="30" as="alternateBounds" />
          </mxGeometry>
        </mxCell>
        <mxCell id="iIC4tSzsz-Pec4KF7wiN-72" value="listener_id                      VARCHAR(6) " style="shape=partialRectangle;overflow=hidden;connectable=0;fillColor=none;top=0;left=0;bottom=0;right=0;align=left;spacingLeft=6;fontStyle=1;" parent="iIC4tSzsz-Pec4KF7wiN-70" vertex="1">
          <mxGeometry x="30" width="300.0000000000001" height="30" as="geometry">
            <mxRectangle width="300.0000000000001" height="30" as="alternateBounds" />
          </mxGeometry>
        </mxCell>
        <mxCell id="iIC4tSzsz-Pec4KF7wiN-73" value="" style="shape=partialRectangle;collapsible=0;dropTarget=0;pointerEvents=0;fillColor=none;points=[[0,0.5],[1,0.5]];portConstraint=eastwest;top=0;left=0;right=0;bottom=0;" parent="iIC4tSzsz-Pec4KF7wiN-69" vertex="1">
          <mxGeometry y="60" width="330.0000000000001" height="110" as="geometry" />
        </mxCell>
        <mxCell id="iIC4tSzsz-Pec4KF7wiN-74" value="" style="shape=partialRectangle;overflow=hidden;connectable=0;fillColor=none;top=0;left=0;bottom=0;right=0;" parent="iIC4tSzsz-Pec4KF7wiN-73" vertex="1">
          <mxGeometry width="30" height="110" as="geometry">
            <mxRectangle width="30" height="110" as="alternateBounds" />
          </mxGeometry>
        </mxCell>
        <mxCell id="iIC4tSzsz-Pec4KF7wiN-75" value="listener_name                 VARCHAR(100)&#xa;email VARCHAR(100)    NOT NULL UNIQUE&#xa;password                        VARCHAR(100) NOT NULL&#xa;created_at                       DATETIME DEFAULT&#xa;&#xa;INDEX(listener_name)" style="shape=partialRectangle;overflow=hidden;connectable=0;fillColor=none;top=0;left=0;bottom=0;right=0;align=left;spacingLeft=6;verticalAlign=top;" parent="iIC4tSzsz-Pec4KF7wiN-73" vertex="1">
          <mxGeometry x="30" width="300.0000000000001" height="110" as="geometry">
            <mxRectangle width="300.0000000000001" height="110" as="alternateBounds" />
          </mxGeometry>
        </mxCell>
        <mxCell id="iIC4tSzsz-Pec4KF7wiN-80" value="" style="edgeStyle=orthogonalEdgeStyle;fontSize=12;html=1;endArrow=ERzeroToMany;startArrow=ERone;rounded=0;startFill=0;endFill=0;exitX=0.999;exitY=0.086;exitDx=0;exitDy=0;exitPerimeter=0;endSize=14;startSize=14;entryX=0;entryY=0.384;entryDx=0;entryDy=0;entryPerimeter=0;" parent="1" source="iIC4tSzsz-Pec4KF7wiN-5" target="iIC4tSzsz-Pec4KF7wiN-33" edge="1">
          <mxGeometry width="100" height="100" relative="1" as="geometry">
            <mxPoint x="270" y="-159" as="sourcePoint" />
            <mxPoint x="420" y="618" as="targetPoint" />
            <Array as="points">
              <mxPoint x="370" y="588" />
              <mxPoint x="370" y="618" />
            </Array>
          </mxGeometry>
        </mxCell>
        <mxCell id="iIC4tSzsz-Pec4KF7wiN-81" value="" style="edgeStyle=orthogonalEdgeStyle;fontSize=12;html=1;endArrow=ERzeroToMany;startArrow=ERone;rounded=0;entryX=-0.002;entryY=0.56;entryDx=0;entryDy=0;entryPerimeter=0;startFill=0;endFill=0;exitX=1.003;exitY=0.442;exitDx=0;exitDy=0;exitPerimeter=0;endSize=14;startSize=14;" parent="1" source="iIC4tSzsz-Pec4KF7wiN-33" target="iIC4tSzsz-Pec4KF7wiN-26" edge="1">
          <mxGeometry width="100" height="100" relative="1" as="geometry">
            <mxPoint x="680" y="620" as="sourcePoint" />
            <mxPoint x="738" y="-195.44" as="targetPoint" />
            <Array as="points">
              <mxPoint x="730" y="624" />
              <mxPoint x="730" y="635" />
            </Array>
          </mxGeometry>
        </mxCell>
        <mxCell id="iIC4tSzsz-Pec4KF7wiN-83" value="" style="edgeStyle=orthogonalEdgeStyle;fontSize=12;html=1;endArrow=ERzeroToMany;startArrow=ERone;rounded=0;startFill=0;endFill=0;exitX=1.003;exitY=0.838;exitDx=0;exitDy=0;exitPerimeter=0;endSize=14;startSize=14;entryX=-0.003;entryY=0.235;entryDx=0;entryDy=0;entryPerimeter=0;" parent="1" source="iIC4tSzsz-Pec4KF7wiN-73" target="iIC4tSzsz-Pec4KF7wiN-2" edge="1">
          <mxGeometry width="100" height="100" relative="1" as="geometry">
            <mxPoint x="-88" y="-144" as="sourcePoint" />
            <mxPoint x="70" y="560" as="targetPoint" />
            <Array as="points">
              <mxPoint x="380" y="212" />
              <mxPoint x="380" y="310" />
              <mxPoint x="30" y="310" />
              <mxPoint x="30" y="557" />
            </Array>
          </mxGeometry>
        </mxCell>
        <mxCell id="iIC4tSzsz-Pec4KF7wiN-84" value="" style="edgeStyle=orthogonalEdgeStyle;fontSize=12;html=1;endArrow=ERzeroToMany;startArrow=ERone;rounded=0;entryX=0;entryY=0.25;entryDx=0;entryDy=0;startFill=0;endFill=0;endSize=14;startSize=14;" parent="1" target="iIC4tSzsz-Pec4KF7wiN-48" edge="1">
          <mxGeometry width="100" height="100" relative="1" as="geometry">
            <mxPoint x="350" y="150" as="sourcePoint" />
            <mxPoint x="408" y="95" as="targetPoint" />
            <Array as="points">
              <mxPoint x="430" y="150" />
              <mxPoint x="430" y="298" />
            </Array>
          </mxGeometry>
        </mxCell>
        <mxCell id="iIC4tSzsz-Pec4KF7wiN-85" value="" style="edgeStyle=orthogonalEdgeStyle;fontSize=12;html=1;endArrow=ERzeroToMany;startArrow=ERone;rounded=0;startFill=0;endFill=0;exitX=1;exitY=0.5;exitDx=0;exitDy=0;endSize=14;startSize=14;" parent="1" source="iIC4tSzsz-Pec4KF7wiN-26" edge="1">
          <mxGeometry width="100" height="100" relative="1" as="geometry">
            <mxPoint x="780" y="-25" as="sourcePoint" />
            <mxPoint x="630" y="350" as="targetPoint" />
            <Array as="points">
              <mxPoint x="1070" y="630" />
              <mxPoint x="1070" y="440" />
              <mxPoint x="580" y="440" />
              <mxPoint x="580" y="350" />
            </Array>
          </mxGeometry>
        </mxCell>
        <mxCell id="iIC4tSzsz-Pec4KF7wiN-98" value="" style="edgeStyle=orthogonalEdgeStyle;fontSize=12;html=1;endArrow=ERzeroToMany;startArrow=ERone;rounded=0;entryX=0;entryY=0.5;entryDx=0;entryDy=0;startFill=0;endFill=0;exitX=1;exitY=0.5;exitDx=0;exitDy=0;endSize=14;startSize=14;" parent="1" source="iIC4tSzsz-Pec4KF7wiN-70" target="iIC4tSzsz-Pec4KF7wiN-56" edge="1">
          <mxGeometry width="100" height="100" relative="1" as="geometry">
            <mxPoint x="350" y="60" as="sourcePoint" />
            <mxPoint x="313.0000000000001" y="468.90999999999985" as="targetPoint" />
            <Array as="points">
              <mxPoint x="500" y="105" />
              <mxPoint x="500" y="105" />
            </Array>
          </mxGeometry>
        </mxCell>
        <mxCell id="iIC4tSzsz-Pec4KF7wiN-99" value="" style="edgeStyle=orthogonalEdgeStyle;fontSize=12;html=1;endArrow=ERzeroToMany;startArrow=ERone;rounded=0;startFill=0;endFill=0;entryX=0;entryY=0.5;entryDx=0;entryDy=0;endSize=14;startSize=14;" parent="1" source="iIC4tSzsz-Pec4KF7wiN-30" target="iIC4tSzsz-Pec4KF7wiN-49" edge="1">
          <mxGeometry width="100" height="100" relative="1" as="geometry">
            <mxPoint x="680" y="560" as="sourcePoint" />
            <mxPoint x="750" y="49" as="targetPoint" />
            <Array as="points">
              <mxPoint x="730" y="560" />
              <mxPoint x="730" y="460" />
              <mxPoint x="520" y="460" />
              <mxPoint x="520" y="325" />
            </Array>
          </mxGeometry>
        </mxCell>
        <mxCell id="iIC4tSzsz-Pec4KF7wiN-48" value="favorite_posts" style="shape=table;startSize=30;container=1;collapsible=1;childLayout=tableLayout;fixedRows=1;rowLines=0;fontStyle=1;align=center;resizeLast=1;rounded=1;" parent="1" vertex="1">
          <mxGeometry x="630" y="270" width="310" height="110" as="geometry" />
        </mxCell>
        <mxCell id="iIC4tSzsz-Pec4KF7wiN-49" value="" style="shape=partialRectangle;collapsible=0;dropTarget=0;pointerEvents=0;fillColor=none;points=[[0,0.5],[1,0.5]];portConstraint=eastwest;top=0;left=0;right=0;bottom=1;" parent="iIC4tSzsz-Pec4KF7wiN-48" vertex="1">
          <mxGeometry y="30" width="310" height="50" as="geometry" />
        </mxCell>
        <mxCell id="iIC4tSzsz-Pec4KF7wiN-50" value="PK" style="shape=partialRectangle;overflow=hidden;connectable=0;fillColor=none;top=0;left=0;bottom=0;right=0;fontStyle=1;" parent="iIC4tSzsz-Pec4KF7wiN-49" vertex="1">
          <mxGeometry width="30" height="50" as="geometry">
            <mxRectangle width="30" height="50" as="alternateBounds" />
          </mxGeometry>
        </mxCell>
        <mxCell id="iIC4tSzsz-Pec4KF7wiN-51" value="listener_id                   VARCHAR(6)&#xa;movie_url                    VARCHAR(100)&#xa;song_id                       INT" style="shape=partialRectangle;overflow=hidden;connectable=0;fillColor=none;top=0;left=0;bottom=0;right=0;align=left;spacingLeft=6;fontStyle=1;" parent="iIC4tSzsz-Pec4KF7wiN-49" vertex="1">
          <mxGeometry x="30" width="280" height="50" as="geometry">
            <mxRectangle width="280" height="50" as="alternateBounds" />
          </mxGeometry>
        </mxCell>
        <mxCell id="iIC4tSzsz-Pec4KF7wiN-52" value="" style="shape=partialRectangle;collapsible=0;dropTarget=0;pointerEvents=0;fillColor=none;points=[[0,0.5],[1,0.5]];portConstraint=eastwest;top=0;left=0;right=0;bottom=0;" parent="iIC4tSzsz-Pec4KF7wiN-48" vertex="1">
          <mxGeometry y="80" width="310" height="30" as="geometry" />
        </mxCell>
        <mxCell id="iIC4tSzsz-Pec4KF7wiN-53" value="" style="shape=partialRectangle;overflow=hidden;connectable=0;fillColor=none;top=0;left=0;bottom=0;right=0;" parent="iIC4tSzsz-Pec4KF7wiN-52" vertex="1">
          <mxGeometry width="30" height="30" as="geometry">
            <mxRectangle width="30" height="30" as="alternateBounds" />
          </mxGeometry>
        </mxCell>
        <mxCell id="iIC4tSzsz-Pec4KF7wiN-54" value="" style="shape=partialRectangle;overflow=hidden;connectable=0;fillColor=none;top=0;left=0;bottom=0;right=0;align=left;spacingLeft=6;" parent="iIC4tSzsz-Pec4KF7wiN-52" vertex="1">
          <mxGeometry x="30" width="280" height="30" as="geometry">
            <mxRectangle width="280" height="30" as="alternateBounds" />
          </mxGeometry>
        </mxCell>
        <mxCell id="iIC4tSzsz-Pec4KF7wiN-111" value="" style="edgeStyle=orthogonalEdgeStyle;fontSize=12;html=1;endArrow=ERzeroToMany;startArrow=ERone;rounded=0;entryX=0.001;entryY=0.019;entryDx=0;entryDy=0;entryPerimeter=0;startFill=0;endFill=0;endSize=14;startSize=14;exitX=1;exitY=0.5;exitDx=0;exitDy=0;" parent="1" source="iIC4tSzsz-Pec4KF7wiN-73" target="iIC4tSzsz-Pec4KF7wiN-33" edge="1">
          <mxGeometry width="100" height="100" relative="1" as="geometry">
            <mxPoint x="400" y="190" as="sourcePoint" />
            <mxPoint x="420.5" y="579.53" as="targetPoint" />
            <Array as="points">
              <mxPoint x="400" y="175" />
              <mxPoint x="400" y="582" />
            </Array>
          </mxGeometry>
        </mxCell>
        <mxCell id="iIC4tSzsz-Pec4KF7wiN-112" value="VTuber_Contents" style="text;strokeColor=none;align=center;fillColor=none;html=1;verticalAlign=middle;whiteSpace=wrap;rounded=0;" parent="1" vertex="1">
          <mxGeometry x="60" y="490" width="90" height="30" as="geometry" />
        </mxCell>
        <mxCell id="iIC4tSzsz-Pec4KF7wiN-113" value="like_relation" style="text;strokeColor=none;align=center;fillColor=none;html=1;verticalAlign=middle;whiteSpace=wrap;rounded=0;" parent="1" vertex="1">
          <mxGeometry x="530" y="30" width="80" height="30" as="geometry" />
        </mxCell>
        <mxCell id="iIC4tSzsz-Pec4KF7wiN-114" value="VTuber karaoke_lists" style="text;strokeColor=none;align=center;fillColor=none;html=1;verticalAlign=middle;whiteSpace=wrap;rounded=0;" parent="1" vertex="1">
          <mxGeometry width="170" height="30" as="geometry" />
        </mxCell>
      </root>
    </mxGraphModel>
  </diagram>
</mxfile>
